<?xml version="1.0" encoding="UTF-8"?><svg xmlns="http://www.w3.org/2000/svg" viewBox="0 0 843.97 232.09"><defs><style>.d{fill:#011e41;}.e{fill:#3cb4e5;}</style></defs><g id="a"/><g id="b"><g id="c"><g><g><path class="d" d="M412.85,0h18.71l11.64,71.06h-18.61l-1.69-12.74h-24.98l-7.17,12.74h-19.41L412.85,0Zm-7.76,44.59h16.22l-2.69-25.58h-.2l-13.34,25.58Z"/><path class="d" d="M447.08,58.62l31.25-26.77h-24.18l2.59-12.44h44.89l-2.59,12.44-31.35,26.77h28.07l-2.69,12.44h-48.77l2.79-12.44Z"/><path class="d" d="M545.01,71.06h-16.22l1.49-7.07h-.2c-3.78,5.77-9.95,8.56-16.92,8.56-14.03,0-15.43-10.75-15.43-13.54,0-3.38,.5-6.07,1-8.26l6.67-31.35h16.92l-5.87,28.66c-.5,2.39-.7,4.18-.7,6.17,0,2.99,1.69,5.37,5.57,5.37,7.17,0,10.35-4.98,11.74-12.24l5.97-27.97h16.92l-10.95,51.65Z"/><path class="d" d="M563.42,0h16.92l-14.83,71.06h-16.92L563.42,0Z"/><path class="e" d="M621.63,38.22c.1-2.49-.7-4.48-2.09-5.87-1.29-1.29-3.09-1.89-5.47-1.99-9.95-.4-13.04,10.05-13.04,17.91s2.89,11.84,8.56,11.84c5.37,0,8.56-3.48,9.85-8.76h16.42c-3.08,14.73-13.34,21.2-26.97,21.2-14.33,0-24.78-7.27-24.78-22.49,0-18.31,12.04-32.15,30.75-32.15,13.04,0,23.09,6.47,23.19,20.3h-16.42Z"/><path class="e" d="M644.12,35.33c2.69-13.44,12.64-17.42,25.28-17.42,14.33,0,23.59,3.48,23.59,13.54,0,6.87-3.88,21.2-5.08,25.98-.9,3.58-1.59,6.87-1.59,9.65,0,1.79,.4,3.09,.7,3.98h-16.62c-.4-2.49-.4-2.29-.4-4.98h-.2c-3.18,4.58-8.26,6.47-15.63,6.47-9.65,0-16.82-3.88-16.82-14.53,0-13.83,12.34-16.52,25.58-17.52,5.77-.3,13.74,.1,13.74-6.67,0-2.99-2.09-4.98-7.17-4.98-5.37,0-8.66,1.59-9.36,6.47h-16.02Zm17.02,26.77c10.25,0,12.24-10.05,12.84-14.73h-.1c-4.28,3.58-19.61-.6-19.61,9.36,0,4.08,3.48,5.37,6.87,5.37Z"/><path class="e" d="M700.64,19.41h16.42l-1.89,8.46h.2c3.48-6.07,9.36-9.95,16.22-9.95,2.29,0,3.98,.1,5.67,.9l-3.29,14.93c-2.29-.6-4.48-1-7.66-1-9.26,0-12.84,5.87-14.53,14.63l-4.98,23.69h-16.92l10.75-51.65Z"/><path class="e" d="M746.42,72.55c0,1.99,.7,3.48,1.89,4.58,1.19,1,2.89,1.59,4.88,1.59,10.55,0,10.75-8.16,12.64-16.32h-.2c-2.59,4.18-8.66,6.17-13.53,6.17-11.74,0-19.41-8.26-19.41-19.9,0-14.83,8.66-30.75,24.98-30.75,6.77,0,13.24,1.99,15.83,8.76h.2l1.39-7.27h16.22l-8.66,41.7c-4.58,21.8-11.55,28.07-30.45,28.07-11.05,0-22.99-3.28-22.69-16.62h16.92Zm23.79-31.15c0-5.97-2.49-10.55-8.06-10.55-8.66,0-12.54,8.46-12.54,16.22,0,5.47,2.19,10.05,8.26,10.05,8.36,0,12.34-7.86,12.34-15.73Z"/><path class="e" d="M819.59,17.91c14.13,0,24.38,7.96,24.38,22.79,0,18.41-11.64,31.85-30.35,31.85-14.33,0-24.78-7.27-24.78-22.49,0-18.31,12.04-32.15,30.75-32.15Zm-5.57,42.2c9.65,0,13.04-10.75,13.04-18.71,0-6.47-2.19-11.05-8.56-11.05-9.16,0-12.74,12.14-12.74,19.11,0,5.87,2.29,10.65,8.26,10.65Z"/></g><path class="e" d="M102.55,117.95l-61.3,78.16c-.24,.3-.6,.48-.99,.48H1.26c-1.05,0-1.64-1.21-.99-2.04L60.35,117.95c.3-.39,.35-.91,.13-1.35L31.17,59.17c-.43-.84,.18-1.83,1.12-1.83h39.37c.47,0,.91,.27,1.12,.69l29.9,58.57c.22,.44,.17,.96-.13,1.35Z"/><path class="d" d="M162.5,117.95l-61.3,78.16c-.24,.3-.6,.48-.99,.48H61.21c-1.05,0-1.64-1.21-.99-2.04l60.08-76.61c.3-.39,.35-.91,.13-1.35l-29.32-57.43c-.43-.84,.18-1.83,1.12-1.83h39.37c.47,0,.91,.27,1.12,.69l29.9,58.57c.22,.44,.17,.96-.13,1.35Z"/><g><path class="d" d="M187.08,57.34h106.29l-5.27,25.73h-75.68l-6.23,29.86h70.02l-5.07,23.79h-70.02l-7.21,34.13h76.84l-5.46,25.75h-107.47l29.27-139.26Z"/><path class="d" d="M343.51,144.12l25.55,52.47h-29.25l-14.63-33.16-26.93,33.16h-31.39l46.81-54.02-22.82-46.82h29.66l11.11,29.07,22.82-29.07h31.02l-41.95,48.38Z"/><path class="d" d="M393.27,95.75h26.72l-2.73,12.48,.39,.39c6.25-10.91,17.95-15.61,30.23-15.61,24.18,0,38.23,15.61,38.23,39.81,0,33.14-17.55,66.5-54.81,66.5-11.71,0-24-5.07-28.29-16.2h-.59l-10.52,48.97h-27.7l29.05-136.35Zm15.02,60.86c0,12.88,6.43,21.84,19.89,21.84,20.88,0,30.23-24.38,30.23-42.13,0-12.09-6.63-22.43-19.7-22.43-20.68,0-30.43,25.36-30.43,42.72Z"/><path class="d" d="M499.61,95.75h26.32l-4.09,18.14,.38,.39c6.25-13.84,19.89-21.27,34.73-21.27,2.91,0,5.64,.2,8.57,.59l-5.66,26.91c-3.89-.77-7.8-1.75-11.7-1.75-21.25,0-28.86,16-32.57,33.16l-9.36,44.66h-27.7l21.07-100.84Z"/><path class="d" d="M582.21,152.91c-.2,2.52-.2,4.29-.2,5.84,0,11.7,7.21,19.7,22.23,19.7,11.11,0,16.57-7.41,20.66-13.84h27.7c-8.77,22.63-23.2,34.72-52.27,34.72-26.91,0-44.86-15.41-44.86-44.07,0-32.2,21.27-62.23,55.59-62.23,28.09,0,47,14.84,47,44.09,0,5.46-.59,10.91-1.55,15.8h-74.31Zm49.14-17.55c0-10.34-2.54-21.47-18.73-21.47s-23.39,10.14-27.5,21.47h46.23Z"/><path class="d" d="M725.34,125.21c-.2-8.59-5.07-13.66-15.61-13.66-9.75,0-16.97,2.73-16.97,9.95,0,4.48,3.3,7.21,12.66,10.14l13.86,4.48c14.82,4.88,26.52,11.89,26.52,28.88,0,24.97-24.77,34.32-47.97,34.32-19.72,0-42.91-7.8-42.91-31.41v-4.09h25.73v3.32c0,9.16,10.34,13.64,19.89,13.64,8.39,0,17.55-2.91,17.55-12.09,0-7.02-3.89-9.16-9.95-11.11l-21.25-6.84c-13.86-4.48-21.84-9.95-21.84-25.73,0-23.8,25.16-32,44.66-32,22.04,0,41.73,6.25,41.34,32.2h-25.73Z"/><path class="d" d="M818.23,125.21c-.2-8.59-5.07-13.66-15.61-13.66-9.75,0-16.97,2.73-16.97,9.95,0,4.48,3.3,7.21,12.66,10.14l13.86,4.48c14.82,4.88,26.52,11.89,26.52,28.88,0,24.97-24.77,34.32-47.97,34.32-19.72,0-42.91-7.8-42.91-31.41v-4.09h25.73v3.32c0,9.16,10.34,13.64,19.89,13.64,8.39,0,17.55-2.91,17.55-12.09,0-7.02-3.89-9.16-9.95-11.11l-21.25-6.84c-13.86-4.48-21.84-9.95-21.84-25.73,0-23.8,25.16-32,44.66-32,22.04,0,41.73,6.25,41.34,32.2h-25.73Z"/></g></g></g></g></svg>