<?xml version="1.0" encoding="UTF-8"?><svg xmlns="http://www.w3.org/2000/svg" viewBox="0 0 887.56 302.53"><defs><style>.d{fill:#9bcb4f;}.e{fill:#1765ae;}</style></defs><g id="a"/><g id="b"><g id="c"><g><path class="e" d="M631.5,1.03c-37.24,0-67.43,20.68-67.43,62.84s30.19,60.52,67.43,60.52,67.43-18.86,67.43-60.52S668.74,1.03,631.5,1.03Zm23.27,78.64l-33.26,10.32c-2.77,.86-5.71-.69-6.56-3.46l-10.32-33.26c-.86-2.77,.69-5.71,3.46-6.56l33.26-10.32c2.77-.86,5.71,.69,6.56,3.46l10.32,33.26c.86,2.77-.69,5.71-3.46,6.56Z"/><path class="e" d="M154.66,66.76c-1.26-.38-1.29-2.15-.04-2.56,8.46-2.82,24.63-10.48,24.63-27.76,0-29.05-31.47-33.09-31.47-33.09H59.82V124.4h90.38s29.05,0,29.05-27.44c0-20.23-16.12-27.68-24.59-30.2Zm-24.51,31.41l-16.94,7.31c-2.66,1.15-5.75-.08-6.89-2.74l-7.31-16.94c-1.15-2.66,.08-5.75,2.74-6.89l16.94-7.31c2.66-1.15,5.75,.08,6.89,2.74l7.31,16.94c1.15,2.66-.08,5.75-2.74,6.89Zm0-51.52l-16.94,7.31c-2.66,1.15-5.75-.08-6.89-2.74l-7.31-16.94c-1.15-2.66,.08-5.75,2.74-6.89l16.94-7.31c2.66-1.15,5.75,.08,6.89,2.74l7.31,16.94c1.15,2.66-.08,5.75-2.74,6.89Z"/><path class="e" d="M272.65,3.35V78.9c0,8.86-7.18,16.04-16.04,16.04h0c-8.86,0-16.04-7.18-16.04-16.04V3.35h-44.79V71.39c0,29.28,23.73,53.01,53.01,53.01h15.63c29.28,0,53.01-23.73,53.01-53.01V3.35h-44.79Z"/><path class="e" d="M429.71,5.37l-1.82,26.63s-49.63-7.87-51.75,3.33c-2.12,11.2,10.89,10.59,24.21,12.71,13.31,2.12,37.83,11.2,37.83,35.71s-17.55,40.65-41.76,40.65-65.67-4.94-65.67-4.94l1.51-26.33s58.4,9.99,60.82-4.54c2.42-14.53-14.83-7.87-35.41-14.22-20.58-6.35-27.24-21.49-26.93-36.01,.3-14.53,12.14-36.08,53.71-38.13,30.72-1.51,45.25,5.14,45.25,5.14Z"/><polygon class="e" points="497.49 3.35 453.62 3.35 453.62 122.48 556.81 122.48 556.81 87.98 498.4 87.98 497.49 3.35"/><path class="e" d="M790.62,62.65v34.18c-.89,.07-4.11,.14-5.02,.14-18.77,0-33.99-15.22-33.99-33.99s15.27-32.51,33.99-33.99c11.77-.93,37.19,7.85,37.19,7.85,0-12.41-.03-30.66-.03-30.66-9.3-3.81-23.19-5.84-47.38-5.15-37.23,1.05-67.43,20.68-67.43,62.84s30.19,60.52,67.43,60.52c21.08,0,39.89-.23,52.26-13.03V62.65h-37.02Z"/><circle class="d" cx="231.04" cy="165.3" r="25.57"/><circle class="d" cx="282.19" cy="165.3" r="25.57"/><circle class="d" cx="701" cy="165.3" r="25.57"/><g><polygon class="e" points="0 254.12 6.05 264.4 17.85 259.26 17.85 302.53 33.59 297.09 33.59 264.4 33.59 233.84 0 254.12"/><path class="e" d="M117.81,251.69c-4-5.66-10.58-9.37-18.04-9.37-11.86,0-21.51,9.36-22.04,21.09-.53-11.73-10.18-21.09-22.04-21.09s-22.09,9.89-22.09,22.09,9.89,22.09,22.09,22.09,21.51-9.36,22.04-21.09c.53,11.73,10.18,21.09,22.04,21.09s22.09-9.89,22.09-22.09c0-.29-.03-.57-.04-.86l9.83-4.28v43.27l15.74-5.45v-63.25l-29.57,17.85Zm-62.44,28.34c-5.02,0-9.09-6.99-9.09-15.62s4.07-15.62,9.09-15.62,9.09,6.99,9.09,15.62-4.07,15.62-9.09,15.62Zm44.08,0c-5.02,0-9.09-6.99-9.09-15.62s4.07-15.62,9.09-15.62,9.09,6.99,9.09,15.62-4.07,15.62-9.09,15.62Z"/></g><path class="e" d="M428.74,261.75c.75-2.93-1.15-5.9-4.14-6.4-6.53-1.09-17.37-1.79-23.34,3.95-5.12,4.92-6.99,11.7-6.3,17.01-3.88,2.62-10.35,6.42-13.22,4.88-4.24-2.27,1.97-19.28,1.97-19.28h10.44l1.66-5.38h-11.05l1.66-9.08h-8.47l-1.36,8.2h-5.45l-1.82,6.26h4.84c0,1.44-.58,5.57-.63,9.95-3.94,2.93-13.46,9.38-20.4,8.88-10.44-.76-7.26-6.51-7.26-6.51,0,0,15.89,.91,19.67-8.32,3.78-9.23-9.23-13.01-17.55-8.17-8.32,4.84-10.95,10.11-11.05,17.4-.02,1.21,.21,2.34,.61,3.38-2.67,1.98-7.22,4.78-8.17,1.61-1.36-4.54,0-7.41,1.21-11.95,1.21-4.54,1.06-11.05-5.3-12.41s-11.95,11.05-11.95,11.05c0,0-.15-10.65-6.2-11.15-6.05-.5-11.95,9.18-11.95,9.18,0,0,.76-9.32-6.66-9.2-5.5,.09-11.82,3.36-14.73,5.04-1.78-2.59-4.38-4.6-7.57-5.54-7.64-2.24-15.74,2.45-18.08,10.47-.35,1.18-.53,2.37-.6,3.55-2.58,2.67-10.75,9.78-24.53,9.45-16.26-.39-13.62-29.84,6.66-29.84,17.85,0-1.21,13.2-6.05,11.08,0,0,2.72,9.68,12.71,4.54,9.99-5.14,6.05-15.43,1.21-18.76-4.84-3.33-21.79-4.85-32.08,10.13-10.29,14.98,1.82,28.66,14.83,28.6,11.27-.05,19.88-2.94,27.85-9.9,1.36,4.58,4.82,8.34,9.59,9.73,7.64,2.24,15.74-2.45,18.08-10.47,1.05-3.59,.76-7.24-.55-10.37,1.98-.81,5.83-2.18,8.13-1.53,3.18,.91-3.93,22.54-3.93,22.54h9.68s7.57-20.12,12.26-19.82c4.69,.3-1.97,19.82-1.97,19.82h9.08s7.87-19.37,11.95-18.91c4.09,.45-5.6,15.43,1.21,18.91,5.31,2.72,13.65-1.65,17.06-3.71,3.16,4.27,10.21,6.15,18.2,3.71,7.85-2.4,13.96-6.44,16.76-8.51,.46,5.06,2.12,9.48,6.84,9.38,6.33-.14,11.96-3.28,15.29-5.61,.94,2.33,2.53,4.07,4.69,4.75,7.26,2.27,14.07-7.41,14.07-7.41,0,0-1.36,14.22,14.07,4.39,0,0-3.93,2.27-4.69,0-.76-2.27,1.51-8.47,3.03-13.31,.62-1.98,1.24-4.27,1.76-6.28Zm-69.54,2.15c.15,4.8-12.71,5.78-12.71,5.78,2.27-5.92,12.56-10.57,12.71-5.78Zm-91.98,7.31c-1.66,5.67-5.35,9.58-8.23,8.73-2.89-.85-3.88-6.13-2.22-11.79,1.66-5.67,5.35-9.58,8.23-8.73,2.89,.85,3.88,6.13,2.22,11.79Zm145.51,.24c-2.85,4.12-6.31,6.67-7.72,5.69-1.41-.98-.24-5.1,2.62-9.22,2.85-4.12,6.31-6.67,7.72-5.69,1.41,.98,.24,5.1-2.62,9.22Z"/><polygon class="e" points="482.87 255.33 482.87 257.75 482.87 260.17 482.87 279.94 482.87 282.36 482.87 284.78 509.3 284.78 509.3 283.17 509.3 279.94 509.3 274.69 502.84 274.69 502.84 279.94 489.32 279.94 489.32 260.17 502.84 260.17 502.84 266.22 509.3 266.22 509.3 260.17 509.3 257.75 509.3 255.33 482.87 255.33"/><polygon class="e" points="521.4 284.78 529.67 284.78 537.94 260.17 546.01 284.78 553.88 284.78 542.58 255.33 532.5 255.33 521.4 284.78"/><polygon class="e" points="591.57 284.78 599.85 284.78 608.12 260.17 616.19 284.78 624.05 284.78 612.76 255.33 602.67 255.33 591.57 284.78"/><polygon class="e" points="586.56 255.33 558.92 255.33 558.92 260.17 569.5 260.17 569.5 284.78 575.95 284.78 575.95 260.17 586.56 260.17 586.56 255.33"/><path class="e" d="M654.3,274.39s5.8-4.03,5.8-9.68-1.21-9.38-8.27-9.38h-15.63v29.45h6.46v-25.52h7.41s5.19-.71,5.19,5.14c0,6.86-8.17,7.46-8.17,7.46l7.46,12.91h6.96l-7.21-10.39Z"/><rect class="e" x="674.02" y="255.33" width="6.15" height="29.45"/><polygon class="e" points="718.4 255.33 718.4 277.37 699.74 255.33 693.59 255.33 693.59 284.78 699.74 284.78 699.74 263.24 718.4 284.78 724.55 284.78 724.55 255.33 718.4 255.33"/><polygon class="e" points="801.92 255.33 801.92 277.37 783.26 255.33 777.11 255.33 777.11 284.78 783.26 284.78 783.26 263.24 801.92 284.78 808.08 284.78 808.08 255.33 801.92 255.33"/><polygon class="e" points="762.88 259.41 762.88 255.33 745.03 255.33 741.78 255.33 738.52 255.33 738.52 284.78 741.78 284.78 745.03 284.78 762.88 284.78 762.88 280.69 745.03 280.69 745.03 272.1 762.88 272.1 762.88 268.01 745.03 268.01 745.03 259.41 762.88 259.41"/><polygon class="e" points="887.56 259.41 887.56 255.33 869.71 255.33 866.45 255.33 863.2 255.33 863.2 284.78 866.45 284.78 869.71 284.78 887.56 284.78 887.56 280.69 869.71 280.69 869.71 272.1 887.56 272.1 887.56 268.01 869.71 268.01 869.71 259.41 887.56 259.41"/><polygon class="e" points="843.28 261.53 850.34 261.53 850.34 255.33 822.2 255.33 822.2 272.42 842.17 272.42 842.17 281.96 829.91 281.96 829.91 279.08 822.2 279.08 822.2 284.78 850.34 284.78 850.34 268.94 829.91 268.94 829.91 258.96 843.23 258.96 843.28 261.53"/></g></g></g></svg>