<svg width="200" height="80" viewBox="0 0 200 80" fill="none" xmlns="http://www.w3.org/2000/svg">
<path d="M41.8144 19.0234H29.7625L22.2111 52.3886H4.38205L2.11347 56.7996L0.972796 59.0008L0 60.7709L32.3186 60.7559L40.5258 24.7417H40.5105L41.8144 19.0234Z" fill="#E60000"/>
<path d="M109.384 27.081L110.931 25.5398H123.249L124.124 24.6672H124.122L125.492 23.2964H113.312L114.876 21.7522H127.035L129.789 19L80.9762 19.0264L74.7789 30.4183H93.1231L86.8709 55.3624H86.8594L85.6164 60.7556H97.3692L104.91 30.4183H118.347L121.7 27.081H109.384Z" fill="#E60000"/>
<path d="M75.2707 51.9388C75.2707 51.9388 78.9991 46.7761 79.7619 40.2725L71.4503 37.8842C71.4503 37.8842 70.3002 44.3831 69.2503 44.5749C69.2503 44.5749 61.5996 38.7569 58.7158 33.8316C58.2509 33.166 57.9181 32.4045 57.7549 31.577C57.6999 31.3427 57.6539 31.1105 57.6394 30.8889C57.6241 30.6925 57.6313 30.4981 57.6514 30.3068C57.7302 27.1255 60.3273 24.5651 63.529 24.5651C66.1896 24.5651 68.8093 25.7923 68.6248 28.2198C68.6708 28.2837 68.4701 30.4219 68.5136 30.4888L74.8169 19.0134H47.9639C47.9639 19.0134 47.9775 19.0496 46.8096 24.1761C46.8096 24.1761 45.5381 29.9493 50.988 36.0669C50.988 36.0669 34.7683 46.14 43.8891 56.8377C43.8891 56.8377 48.4697 61.1034 57.564 60.927C57.564 60.927 63.6202 60.927 69.2503 58.249L71.5619 60.7451H82.4744L75.2707 51.9388ZM52.6123 51.7454C48.3108 47.0629 56.1502 43.1406 56.63 42.5688L64.3258 51.7454C64.3258 51.7454 56.9146 56.4329 52.6123 51.7454Z" fill="#E60000"/>
<path d="M119.451 53.8025H113.613L112.858 57.767H119.402L118.842 60.7587H108.796L111.909 44.3644H121.615L121.031 47.356H114.853L114.172 50.8599H120.01L119.451 53.8025Z" fill="#E60000"/>
<path d="M129.765 60.7586L128.645 57.4503C128.331 56.4541 128.064 55.6756 127.77 54.6538H127.723C127.189 55.5785 126.748 56.4064 126.044 57.5731L124.123 60.7586H119.916L126.044 52.3908L123.174 44.3643H126.872L127.868 47.5021C128.16 48.5239 128.38 49.2538 128.623 50.2262H128.696C129.303 49.1081 129.716 48.3283 130.252 47.4527L132.15 44.3643H136.334L130.349 52.4164L133.488 60.7586H129.765Z" fill="#E60000"/>
<path d="M138.256 44.6797C139.302 44.4134 140.958 44.2425 142.538 44.2425C143.998 44.2425 145.702 44.4866 146.893 45.3371C147.986 46.0909 148.669 47.2359 148.669 48.8159C148.669 50.8837 147.719 52.439 146.43 53.4369C145.092 54.4839 143.196 54.9466 141.202 54.9466C140.617 54.9466 140.13 54.8972 139.766 54.8469L138.647 60.7587H135.216L138.256 44.6797ZM140.301 52.0027C140.665 52.076 141.055 52.1237 141.639 52.1237C143.756 52.1237 145.141 50.7597 145.141 49.1312C145.141 47.5503 143.998 47.0403 142.636 47.0403C141.979 47.0403 141.518 47.088 141.226 47.1609L140.301 52.0027Z" fill="#E60000"/>
<path d="M152.026 44.6797C153.123 44.4134 154.776 44.2425 156.405 44.2425C157.963 44.2425 159.568 44.4866 160.712 45.1914C161.782 45.8238 162.537 46.869 162.537 48.4021C162.537 50.836 160.905 52.3423 158.813 53.0236V53.1216C159.787 53.5354 160.201 54.6296 160.371 56.1124C160.563 57.9375 160.712 60.0786 161.003 60.7587H157.402C157.257 60.3215 157.088 58.9094 156.916 56.8914C156.77 54.8972 156.088 54.2883 154.704 54.2883H153.634L152.416 60.7587H148.937L152.026 44.6797ZM154.143 51.6614H155.602C157.501 51.6614 158.884 50.5177 158.884 48.913C158.884 47.6002 157.768 47.0151 156.382 47.0151C155.724 47.0151 155.312 47.0646 155.019 47.137L154.143 51.6614Z" fill="#E60000"/>
<path d="M173.777 53.8025H167.938L167.184 57.767H173.726L173.167 60.7587H163.121L166.235 44.3644H175.94L175.357 47.356H169.177L168.497 50.8599H174.334L173.777 53.8025Z" fill="#E60000"/>
<path d="M176.405 56.9641C177.377 57.5483 178.764 58.0114 180.272 58.0114C181.634 58.0114 182.875 57.3787 182.875 56.0884C182.875 55.1634 182.169 54.5575 180.661 53.7785C178.91 52.8292 177.256 51.5637 177.256 49.4233C177.256 46.1155 180.15 44.0962 183.725 44.0962C185.721 44.0962 186.887 44.5342 187.593 44.9233L186.499 47.8421C185.963 47.5502 184.796 47.0883 183.435 47.1126C181.804 47.1126 180.953 47.9396 180.953 48.84C180.953 49.7889 181.951 50.3718 183.336 51.1508C185.332 52.196 186.597 53.5357 186.597 55.4808C186.597 59.13 183.581 61.0023 179.932 61.0023C177.643 61.0023 176.014 60.4189 175.235 59.8356L176.405 56.9641Z" fill="#E60000"/>
<path d="M188.813 56.9641C189.783 57.5483 191.17 58.0114 192.678 58.0114C194.042 58.0114 195.283 57.3787 195.283 56.0884C195.283 55.1634 194.577 54.5575 193.07 53.7785C191.319 52.8292 189.663 51.5637 189.663 49.4233C189.663 46.1155 192.557 44.0962 196.134 44.0962C198.128 44.0962 199.295 44.5342 200 44.9233L198.907 47.8421C198.373 47.5502 197.205 47.0883 195.842 47.1126C194.212 47.1126 193.361 47.9396 193.361 48.84C193.361 49.7889 194.358 50.3718 195.746 51.1508C197.739 52.196 199.003 53.5357 199.003 55.4808C199.003 59.13 195.988 61.0023 192.338 61.0023C190.052 61.0023 188.421 60.4189 187.643 59.8356L188.813 56.9641Z" fill="#E60000"/>
</svg>
